<?xml version="1.0" encoding="UTF-8"?>
<svg id="Layer_2" xmlns="http://www.w3.org/2000/svg" version="1.1" xmlns:inkscape="http://www.inkscape.org/namespaces/inkscape" xmlns:sodipodi="http://sodipodi.sourceforge.net/DTD/sodipodi-0.dtd" xmlns:svg="http://www.w3.org/2000/svg" viewBox="0 0 562 188.4">
  <!-- Generator: Adobe Illustrator 29.3.1, SVG Export Plug-In . SVG Version: 2.1.0 Build 151)  -->
  <defs>
    <style>
      .st0 {
        fill: #fff;
        stroke: #000;
        stroke-miterlimit: 10;
      }
    </style>
  </defs>
  <path id="path1" class="st0" d="M157.3,36.3c-11.2,36.8-22.4,73.4-33.6,110.2h-21.2c-8-27.8-16-55.8-23.8-83.6-8.4,28-16.8,56-25.4,84-8.4,0-12.6.2-21,.2C18.3,98.7,6.3,50.1.1.1c8,.2,11.8.8,19.8,2.4,4.8,42,13,83,23.6,124,10-36,19.2-72,25.6-108.8,8.4,3.2,12.6,4.8,21,7.6,6.2,34,14.8,67.2,23.8,100.6,8-30,15.8-60,23.8-90,7.6.6,11.6.2,19.6.4h0Z"/>
  <path id="path2" class="st0" d="M162.9,79.7c3.8-6.6,8.8-11.6,15.4-15,6.4-3.4,13.6-4.8,21.6-4.2,7,.6,13.8,2.4,19,5.4,5.2,3,9.2,6.8,13.2,10.6v-12.4c6,.6,10,.8,18,1.2v81.2h-18v-12.6c-4,4.2-8,7.6-13.4,10.4-5.4,2.8-12,4.2-18.8,4.2s-15-2-21.4-5.8-11.6-9.2-15.4-16.2-5.6-14.8-5.6-23.6c-.4-9,1.6-16.6,5.4-23.2h0ZM227.1,89.3c-2.6-3.8-6-6.8-10-9.2-4.2-2.4-8.6-3.6-13.4-4-4.8-.2-9.2.6-13.4,2.4-4.2,2-7.4,5-10,9s-3.8,9-3.8,15,1.2,11.4,3.8,16,6,8,10.2,10.4c4.2,2.4,8.6,3.6,13.4,3.6s9.2-1.2,13.4-3.6,7.4-5.8,10-10.2c2.6-4.6,3.8-10,3.8-15.8s-1.4-9.6-4-13.6h0Z"/>
  <path id="path3" class="st0" d="M270.3,84.3c3.8-5.2,8.8-10.2,15.4-14,6.4-3.8,13.6-5.8,21.6-6.2,7-.4,13,.6,18.2,3s10.4,5.4,12.4,9v-12.8c8-.6,12-1,20-1.8v85h-20v-12.6c-2,4.2-7.2,7.6-12.6,10.4-5.4,2.8-11.6,4.2-18.6,4.2s-14.8-2-21.2-5.8-11.4-9.2-15.2-16.2-5.6-15.4-5.6-23.4,1.8-13.6,5.6-18.8h0ZM334.7,89.3c-2.6-3.6-6-6.4-10-8.2-4.2-1.8-8.6-2.6-13.4-2.4s-9.2,1.4-13.4,3.4-7.4,4.6-10,8-3.8,7.2-3.8,12.8,1.2,11.2,3.8,15.8,6,8,10.2,10.4,8.6,3.6,13.4,3.6,9.2-1.2,13.4-3.6,7.4-5.8,10-10.2c2.6-4.6,3.8-10,3.8-15.8-.2-5.6-1.6-10-4-13.8Z"/>
  <path id="path4" class="st0" d="M377.9,80.5c3.8-6.6,8.8-11.8,15.4-16.6,6.4-4.8,13.8-8.2,21.6-8.2s13.2,2.2,18.6,5.6,10.4,6.6,12.4,10.6v-14.2c8,0,12,.2,18,.2v130.4h-18v-54.2c-2,4-7.2,7.2-12.8,10s-11.8,4.2-19,4.2-14.8-2-21.2-5.8-11.4-9.2-15.2-16.2-5.6-15-5.6-23.6,2-15.6,5.8-22.2h0ZM442.1,87.3c-2.6-4.4-6-7.8-10-10.2-4.2-2.4-8.6-3.6-13.4-3.4-4.8,0-9.2,1.2-13.4,3.6s-7.4,5.8-10,10c-2.6,4.4-3.8,9.4-3.8,15.4s1.2,11.4,3.8,16,6,8,10.2,10.4c4.2,2.4,8.6,3.6,13.4,3.6s9.2-1.2,13.4-3.6,7.4-5.8,10-10.2c2.6-4.6,3.8-9.8,3.8-15.8s-1.4-11.4-4-15.8Z"/>
  <path id="path5" class="st0" d="M507.9,74.5v48.2c0,3.2.4,6,2,7.4s3.8,2.4,7.6,2.4h12.4v14h-15.6c-8.4,0-15-1.6-19.4-5.4-4.4-3.8-6.8-9.8-6.8-18.4v-48.2h-10v-16.2c4,0,6,.2,10,.2v-23c7-9.6,12.4-20.2,20.8-28.8.6,17.4-1,34.8-1,52.4,8,.2,12,.2,22,.4v15.2c-10-.2-14-.2-22-.2h0Z"/>
  <path id="path6" class="st0" d="M541.9,44.3c-2-2.2-3-5.8-2.6-9.8.2-3.8,1.6-6.4,4-7.6s5-1.4,8.2-1.2c3,.2,5.4.8,7.4,2.6,2,1.8,3,4.4,3,7.6s-1,6.2-3.4,8.4-5.2,3.2-8.4,3c-3.2.2-6-.8-8.2-3ZM559.9,59.3v87.2h-20V59.3h20Z"/>
</svg>